<?xml version="1.0" encoding="utf-8"?>
<!DOCTYPE svg PUBLIC "-//W3C//DTD SVG 1.0//EN" "http://www.w3.org/TR/2001/REC-SVG-20010904/DTD/svg10.dtd">
<svg version="1.0" xmlns="http://www.w3.org/2000/svg" width="3300px" height="3300px" viewBox="0 0 3300 3300" preserveAspectRatio="xMidYMid meet">
 <g fill="#ffffff">
  <path d="M0 2531.40 c0 -764.09 0 -768.60 6.45 -768.60 7.73 0 7.09 -2.26 15.79 75.73 12.89 113.12 35.13 212.70 72.83 325.49 107.31 321.30 305.51 594.90 580.08 801.15 197.23 148.24 436.67 252.98 679.98 297.77 49.31 9.02 137.29 20.95 154.69 20.95 6.12 0 11.28 1.61 11.28 3.22 0 1.93 7.41 3.22 16.11 3.22 12.25 0 16.11 1.29 16.11 4.83 0 4.19 -88.30 4.83 -776.66 4.83 l-776.66 0 0 -768.60z"/>
  <path d="M1778.91 3291.94 c0 -7.09 1.29 -8.06 11.28 -8.06 6.12 0 33.84 -2.90 61.88 -6.45 423.13 -54.14 804.38 -268.13 1076.69 -604.89 163.39 -202.38 281.34 -456.33 330.64 -711.56 9.67 -49.95 19.98 -121.82 23.20 -158.55 1.93 -25.46 2.58 -26.75 9.67 -26.75 l7.73 0 0 762.16 0 762.16 -760.55 0 -760.55 0 0 -8.06z"/>
  <path d="M1538.82 3207.51 c-300.35 -20.63 -589.10 -127.62 -828.22 -307.12 -158.23 -118.92 -298.74 -274.57 -398.64 -441.50 -119.24 -199.16 -187.88 -405.41 -214.31 -644.53 -6.77 -62.84 -7.73 -247.82 -1.61 -310.99 25.78 -261.68 110.21 -503.06 249.76 -713.82 205.93 -310.66 512.40 -536.57 865.93 -637.44 91.85 -26.43 156.62 -39.32 252.98 -51.24 61.23 -7.41 294.87 -8.38 357.71 -1.61 337.41 37.38 650.65 180.47 892.68 407.67 294.87 276.83 463.10 631.64 491.78 1036.08 6.77 97.32 0.64 253.62 -13.21 343.86 -26.75 169.83 -70.90 310.99 -145.02 460.84 -120.85 244.92 -301.96 450.85 -530.13 602.64 -64.45 42.86 -101.84 64.45 -165.97 96.68 -169.19 84.76 -345.15 135.67 -538.51 156.30 -49.31 5.16 -80.24 6.45 -160.17 5.80 -54.46 -0.32 -106.03 -0.97 -115.05 -1.61z m334.83 -922 c348.37 -347.72 633.57 -633.57 633.57 -634.86 0 -1.29 -285.53 -288.11 -634.86 -637.12 l-634.86 -634.86 -109.57 109.57 -109.57 109.57 520.46 520.46 c517.56 517.56 520.46 520.46 520.46 533.35 0 12.57 -2.90 15.79 -517.88 531.09 -285.21 284.88 -518.85 518.85 -519.81 519.81 -1.61 1.93 213.66 217.53 216.56 216.56 0.97 -0.64 287.14 -285.53 635.51 -633.57z"/>
  <path d="M0 791.16 l0 -791.16 812.11 0 c809.85 0 812.11 0 812.11 6.45 0 6.12 -2.26 6.45 -36.09 6.77 -19.98 0 -48.02 1.29 -62.20 2.90 -14.18 1.61 -40.28 4.51 -58.01 6.12 -169.83 16.44 -366.42 74.44 -535.28 157.91 -79.28 38.99 -113.44 58.65 -183.37 105.06 -348.69 230.42 -598.13 586.85 -694.16 991.29 -21.59 90.23 -37.06 191.75 -41.25 267.80 -1.61 34.16 -2.58 38.03 -8.06 38.03 -5.48 0 -5.80 -24.17 -5.80 -791.16z"/>
  <path d="M3290.33 1558.15 c0 -13.21 -1.29 -24.17 -2.90 -24.17 -1.29 0 -3.54 -14.18 -4.83 -31.26 -7.09 -103.13 -37.38 -246.86 -76.38 -363.52 -126.01 -375.44 -379.95 -691.90 -716.72 -893.32 -203.03 -121.49 -411.86 -193.04 -650.33 -223.33 -28.04 -3.54 -56.40 -6.45 -63.49 -6.45 -16.44 0 -22.56 -2.58 -22.56 -9.99 0 -6.12 16.76 -6.12 773.44 -6.12 l773.44 0 0 791.16 c0 701.25 -0.64 791.16 -4.83 791.16 -3.87 0 -4.83 -4.83 -4.83 -24.17z"/>
 </g>
 <g fill="#7c1015">
  <path d="M1492.09 3293.23 c-190.78 -19.98 -346.76 -60.91 -514.34 -135.03 -295.52 -130.52 -560.42 -361.90 -730.58 -638.73 -127.62 -207.22 -208.83 -439.25 -234.29 -671.28 -3.87 -33.52 -8.38 -65.74 -9.99 -71.22 -3.87 -13.21 -3.54 -174.67 0.32 -233.32 13.54 -195.62 57.36 -374.79 136 -555.91 123.43 -284.88 336.77 -537.86 600.38 -712.21 69.93 -46.41 104.09 -66.06 183.37 -105.06 168.22 -83.14 367.71 -142.12 533.67 -157.59 16.76 -1.61 45.12 -4.51 62.84 -6.45 45.76 -5.16 237.83 -5.48 275.54 -0.64 126.65 16.11 181.44 25.78 268.45 47.70 205.61 52.21 403.48 147.28 575.89 277.15 267.48 201.09 464.38 471.80 572.99 787.94 39.32 114.40 66.71 240.73 79.92 367.06 6.12 59.62 10.31 299.71 5.48 299.71 -1.93 0 -4.19 11.92 -5.48 26.75 -8.70 102.48 -38.35 245.57 -73.15 351.27 -117.95 357.07 -348.37 658.39 -660.32 864.32 -188.20 124.07 -384.46 203.67 -602.64 244.60 -46.73 9.02 -138.25 21.27 -156.30 21.27 -6.12 0 -11.92 1.61 -12.89 3.22 -3.87 6.12 -230.74 3.54 -294.87 -3.54z m312.28 -99.58 c332.90 -35.45 631.96 -167.26 879.79 -388.65 146.95 -131.16 267.16 -289.39 354.81 -466.96 103.45 -209.15 154.37 -416.37 160.17 -651.30 8.38 -337.41 -94.75 -671.60 -290.68 -940.69 -221.07 -303.90 -529.80 -511.76 -892.03 -601.03 -55.75 -13.86 -143.73 -29.33 -203.67 -36.09 -62.20 -6.77 -277.15 -5.80 -338.38 1.61 -96.36 11.92 -161.13 24.81 -252.98 51.24 -489.84 139.86 -883.65 519.17 -1043.82 1004.82 -34.80 105.06 -60.26 228.81 -71.87 346.44 -6.12 62.20 -5.16 229.45 1.61 291.65 40.61 368.99 192.07 687.39 450.21 944.24 266.51 265.55 614.88 423.13 990.97 448.92 9.02 0.64 56.40 1.29 105.38 1.61 70.25 0.64 102.16 -0.64 150.50 -5.80z"/>
  <path d="M1118.26 2821.44 l-117.63 -117.63 231.06 -231.06 c127.29 -127.29 360.62 -360.29 518.20 -518.20 157.91 -157.59 290.36 -291.01 293.91 -296.16 l6.77 -9.02 -524.33 -524.33 c-288.11 -288.11 -524 -525.62 -524 -527.23 0 -5.16 230.10 -233.64 235.25 -233.64 2.58 0 294.23 289.39 647.75 642.92 l642.60 642.60 -6.45 7.09 c-11.28 13.21 -1282.29 1281.97 -1283.91 1282.29 -0.97 0 -54.46 -52.85 -119.24 -117.63z"/>
 </g>
</svg>